<svg xmlns="http://www.w3.org/2000/svg" viewBox="29.560000000000002 42.56 426.88 426.88"><path d="M74 160 C 104 160, 104 128, 134 128 C 164 128, 164 160, 194 160 C 248 160, 266 256, 322 256" fill="none" stroke="#000000" stroke-width="30" stroke-linecap="round" stroke-linejoin="round"/><path d="M96 256 C 122 256, 126 284, 152 284 C 178 284, 182 256, 208 256 L 322 256" fill="none" stroke="#000000" stroke-width="30" stroke-linecap="round" stroke-linejoin="round"/><path d="M74 352 C 104 352, 104 384, 134 384 C 164 384, 164 352, 194 352 C 248 352, 266 256, 322 256" fill="none" stroke="#000000" stroke-width="30" stroke-linecap="round" stroke-linejoin="round"/><path d="M322 256 L 412 256" fill="none" stroke="#000000" stroke-width="30" stroke-linecap="round" stroke-linejoin="round"/></svg>